<svg width="55" height="55" viewBox="0 0 55 55" fill="none" xmlns="http://www.w3.org/2000/svg">
<mask id="path-1-inside-1_318_177" fill="white">
<path d="M27.5 0C42.6878 0 55 12.3122 55 27.5C55 42.6878 42.6878 55 27.5 55C12.3122 55 0 42.6878 0 27.5C0 12.3122 12.3122 0 27.5 0ZM30.8242 13.2656C28.9232 13.2656 27.4193 13.6302 26.3125 14.3594C25.2057 15.0755 24.5156 15.9023 24.2422 16.8398C23.9818 17.7643 23.8385 19.2422 23.8125 21.2734H21.5273V25.8047H23.8125V41H29.4766V25.8047H33.0508V21.2734H29.4766V20.5312C29.4766 19.5938 29.6068 18.9167 29.8672 18.5C30.1276 18.0833 30.6549 17.875 31.4492 17.875C31.9961 17.875 32.6862 17.9076 33.5195 17.9727V13.4805C32.5039 13.3372 31.6055 13.2656 30.8242 13.2656Z"/>
</mask>
<path d="M26.3125 14.3594L27.9423 16.8781L27.9526 16.8714L27.963 16.8646L26.3125 14.3594ZM24.2422 16.8398L21.3622 15.9998L21.3583 16.0131L21.3546 16.0264L24.2422 16.8398ZM23.8125 21.2734V24.2734H26.7743L26.8123 21.3119L23.8125 21.2734ZM21.5273 21.2734V18.2734H18.5273V21.2734H21.5273ZM21.5273 25.8047H18.5273V28.8047H21.5273V25.8047ZM23.8125 25.8047H26.8125V22.8047H23.8125V25.8047ZM23.8125 41H20.8125V44H23.8125V41ZM29.4766 41V44H32.4766V41H29.4766ZM29.4766 25.8047V22.8047H26.4766V25.8047H29.4766ZM33.0508 25.8047V28.8047H36.0508V25.8047H33.0508ZM33.0508 21.2734H36.0508V18.2734H33.0508V21.2734ZM29.4766 21.2734H26.4766V24.2734H29.4766V21.2734ZM33.5195 17.9727L33.2859 20.9635L36.5195 21.2162V17.9727H33.5195ZM33.5195 13.4805H36.5195V10.8739L33.9385 10.5099L33.5195 13.4805ZM27.5 0V3C41.031 3 52 13.969 52 27.5H55H58C58 10.6553 44.3447 -3 27.5 -3V0ZM55 27.5H52C52 41.031 41.031 52 27.5 52V55V58C44.3447 58 58 44.3447 58 27.5H55ZM27.5 55V52C13.969 52 3 41.031 3 27.5H0H-3C-3 44.3447 10.6553 58 27.5 58V55ZM0 27.5H3C3 13.969 13.969 3 27.5 3V0V-3C10.6553 -3 -3 10.6553 -3 27.5H0ZM30.8242 13.2656V10.2656C28.5794 10.2656 26.4284 10.6905 24.662 11.8542L26.3125 14.3594L27.963 16.8646C28.4101 16.5699 29.2669 16.2656 30.8242 16.2656V13.2656ZM26.3125 14.3594L24.6827 11.8407C23.1843 12.8103 21.8985 14.1609 21.3622 15.9998L24.2422 16.8398L27.1222 17.6798C27.1327 17.6438 27.2272 17.3408 27.9423 16.8781L26.3125 14.3594ZM24.2422 16.8398L21.3546 16.0264C20.9808 17.3533 20.8393 19.1655 20.8127 21.235L23.8125 21.2734L26.8123 21.3119C26.8378 19.3189 26.9827 18.1753 27.1298 17.6533L24.2422 16.8398ZM23.8125 21.2734V18.2734H21.5273V21.2734V24.2734H23.8125V21.2734ZM21.5273 21.2734H18.5273V25.8047H21.5273H24.5273V21.2734H21.5273ZM21.5273 25.8047V28.8047H23.8125V25.8047V22.8047H21.5273V25.8047ZM23.8125 25.8047H20.8125V41H23.8125H26.8125V25.8047H23.8125ZM23.8125 41V44H29.4766V41V38H23.8125V41ZM29.4766 41H32.4766V25.8047H29.4766H26.4766V41H29.4766ZM29.4766 25.8047V28.8047H33.0508V25.8047V22.8047H29.4766V25.8047ZM33.0508 25.8047H36.0508V21.2734H33.0508H30.0508V25.8047H33.0508ZM33.0508 21.2734V18.2734H29.4766V21.2734V24.2734H33.0508V21.2734ZM29.4766 21.2734H32.4766V20.5312H29.4766H26.4766V21.2734H29.4766ZM29.4766 20.5312H32.4766C32.4766 20.1898 32.5012 19.9857 32.5202 19.8869C32.5291 19.841 32.5327 19.8391 32.5215 19.8703C32.5105 19.9012 32.4789 19.9817 32.4112 20.09L29.8672 18.5L27.3232 16.91C26.5987 18.0692 26.4766 19.4605 26.4766 20.5312H29.4766ZM29.8672 18.5L32.4112 20.09C32.1508 20.5065 31.7977 20.7276 31.5603 20.8214C31.3627 20.8995 31.2893 20.875 31.4492 20.875V17.875V14.875C30.2823 14.875 28.4089 15.1729 27.3232 16.91L29.8672 18.5ZM31.4492 17.875V20.875C31.8889 20.875 32.4943 20.9017 33.2859 20.9635L33.5195 17.9727L33.7532 14.9818C32.8781 14.9134 32.1033 14.875 31.4492 14.875V17.875ZM33.5195 17.9727H36.5195V13.4805H33.5195H30.5195V17.9727H33.5195ZM33.5195 13.4805L33.9385 10.5099C32.8243 10.3527 31.7811 10.2656 30.8242 10.2656V13.2656V16.2656C31.4298 16.2656 32.1835 16.3217 33.1006 16.4511L33.5195 13.4805Z" fill="white" mask="url(#path-1-inside-1_318_177)"/>
</svg>
