<svg width="55" height="55" viewBox="0 0 55 55" fill="none" xmlns="http://www.w3.org/2000/svg">
<path d="M27.5 0C42.6878 0 55 12.3122 55 27.5C55 42.6878 42.6878 55 27.5 55C12.3122 55 0 42.6878 0 27.5C0 12.3122 12.3122 0 27.5 0ZM30.3154 12.8789C28.3193 12.8789 26.7402 13.2617 25.5781 14.0273C24.416 14.7793 23.6914 15.6475 23.4043 16.6318C23.1309 17.6025 22.9805 19.1543 22.9531 21.2871H20.5537V26.0449H22.9531V42H28.9004V26.0449H32.6533V21.2871H28.9004V20.5078C28.9004 19.5234 29.0371 18.8125 29.3105 18.375C29.584 17.9375 30.1377 17.7188 30.9717 17.7188C31.5459 17.7188 32.2705 17.7529 33.1455 17.8213V13.1045C32.0791 12.9541 31.1357 12.8789 30.3154 12.8789Z" fill="white"/>
</svg>
