<svg width="352" height="317" viewBox="0 0 352 317" fill="none" xmlns="http://www.w3.org/2000/svg">
<mask id="mask0_459_4" style="mask-type:alpha" maskUnits="userSpaceOnUse" x="0" y="0" width="352" height="317">
<rect x="0.310547" y="0.739502" width="351.215" height="315.365" fill="#D9D9D9"/>
</mask>
<g mask="url(#mask0_459_4)">
<path d="M376.388 32.9648L352.349 129.119L303.554 147.124C298.745 149.28 282.59 151.601 268.264 145.234C253.937 138.867 200.446 105.876 173.916 89.9575C169.054 86.5365 159.871 76.7236 169.794 65.5369C177.555 56.7875 190.179 61.889 194.489 65.5369L213.797 76.6335C219.109 79.0643 229.591 82.1368 235.044 73.2125C240.002 65.0976 235.612 54.9224 232.793 51.6061C227.377 45.465 201.07 33.4451 179.525 34.9193C171.653 34.9005 155.37 37.832 127.035 55.9526L106.64 67.228C104.153 68.8862 93.8651 74.7725 85.2389 65.0201C78.7108 57.6399 80.8048 50.5681 82.629 47.915C83.9772 45.8087 83.9837 43.9447 98.2031 36.5717C113.531 28.6237 122.111 23.2222 132.863 17.8461C143.082 12.7367 158.319 2.31047 193.638 0.818142C221.892 -0.37572 249.222 12.3274 259.171 18.2968C268.456 22.9395 286.82 33.4562 308.812 55.5717L376.388 32.9648Z" fill="#A30505"/>
<path d="M-24.1298 184.283L-0.0907288 88.1284L48.7037 70.1231C53.5124 67.9675 69.6679 65.6464 83.9942 72.0137C98.3206 78.3809 151.812 111.372 178.342 127.29C183.204 130.711 192.386 140.524 182.464 151.711C174.703 160.46 162.079 155.359 157.768 151.711L138.46 140.614C133.149 138.183 122.666 135.111 117.214 144.035C112.256 152.15 116.646 162.325 119.465 165.641C124.881 171.783 151.188 183.802 172.733 182.328C180.605 182.347 196.888 179.416 225.223 161.295L245.618 150.02C248.105 148.361 258.393 142.475 267.019 152.227C273.547 159.608 271.453 166.68 269.629 169.333C268.281 171.439 268.274 173.303 254.055 180.676C238.727 188.624 230.147 194.025 219.394 199.401C209.176 204.511 193.939 214.937 158.62 216.429C130.365 217.623 103.036 204.92 93.0869 198.951C83.8013 194.308 65.438 183.791 43.4454 161.676L-24.1298 184.283Z" fill="#4D4D4D"/>
<path d="M14.0215 285.669C11.3895 285.669 8.86721 285.324 6.45455 284.635C4.04188 283.914 2.09921 282.99 0.626547 281.862L3.21155 276.128C4.62155 277.131 6.28221 277.961 8.19355 278.619C10.1362 279.246 12.0945 279.559 14.0685 279.559C15.5725 279.559 16.7789 279.418 17.6875 279.136C18.6275 278.823 19.3169 278.4 19.7555 277.867C20.1942 277.334 20.4135 276.723 20.4135 276.034C20.4135 275.157 20.0689 274.467 19.3795 273.966C18.6902 273.433 17.7815 273.01 16.6535 272.697C15.5255 272.352 14.2722 272.039 12.8935 271.757C11.5462 271.444 10.1832 271.068 8.80455 270.629C7.45721 270.19 6.21955 269.626 5.09155 268.937C3.96355 268.248 3.03921 267.339 2.31855 266.211C1.62921 265.083 1.28455 263.642 1.28455 261.887C1.28455 260.007 1.78588 258.299 2.78855 256.764C3.82255 255.197 5.35788 253.96 7.39455 253.051C9.46255 252.111 12.0475 251.641 15.1495 251.641C17.2175 251.641 19.2542 251.892 21.2595 252.393C23.2649 252.863 25.0352 253.584 26.5705 254.555L24.2205 260.336C22.6852 259.459 21.1499 258.816 19.6145 258.409C18.0792 257.97 16.5752 257.751 15.1025 257.751C13.6299 257.751 12.4235 257.923 11.4835 258.268C10.5435 258.613 9.86988 259.067 9.46255 259.631C9.05521 260.164 8.85155 260.79 8.85155 261.511C8.85155 262.357 9.19621 263.046 9.88555 263.579C10.5749 264.08 11.4835 264.488 12.6115 264.801C13.7395 265.114 14.9772 265.428 16.3245 265.741C17.7032 266.054 19.0662 266.415 20.4135 266.822C21.7922 267.229 23.0455 267.778 24.1735 268.467C25.3015 269.156 26.2102 270.065 26.8995 271.193C27.6202 272.321 27.9805 273.747 27.9805 275.47C27.9805 277.319 27.4635 279.011 26.4295 280.546C25.3955 282.081 23.8445 283.319 21.7765 284.259C19.7399 285.199 17.1549 285.669 14.0215 285.669ZM44.9332 285.669C42.3326 285.669 39.9199 285.246 37.6952 284.4C35.5019 283.554 33.5906 282.363 31.9612 280.828C30.3632 279.293 29.1099 277.491 28.2012 275.423C27.3239 273.355 26.8852 271.099 26.8852 268.655C26.8852 266.211 27.3239 263.955 28.2012 261.887C29.1099 259.819 30.3789 258.017 32.0082 256.482C33.6376 254.947 35.5489 253.756 37.7422 252.91C39.9356 252.064 42.3169 251.641 44.8862 251.641C47.4869 251.641 49.8682 252.064 52.0302 252.91C54.2236 253.756 56.1192 254.947 57.7172 256.482C59.3466 258.017 60.6156 259.819 61.5242 261.887C62.4329 263.924 62.8872 266.18 62.8872 268.655C62.8872 271.099 62.4329 273.371 61.5242 275.47C60.6156 277.538 59.3466 279.34 57.7172 280.875C56.1192 282.379 54.2236 283.554 52.0302 284.4C49.8682 285.246 47.5026 285.669 44.9332 285.669ZM44.8862 279.183C46.3589 279.183 47.7062 278.932 48.9282 278.431C50.1816 277.93 51.2782 277.209 52.2182 276.269C53.1582 275.329 53.8789 274.217 54.3802 272.932C54.9129 271.647 55.1792 270.222 55.1792 268.655C55.1792 267.088 54.9129 265.663 54.3802 264.378C53.8789 263.093 53.1582 261.981 52.2182 261.041C51.3096 260.101 50.2286 259.38 48.9752 258.879C47.7219 258.378 46.3589 258.127 44.8862 258.127C43.4136 258.127 42.0506 258.378 40.7972 258.879C39.5752 259.38 38.4942 260.101 37.5542 261.041C36.6142 261.981 35.8779 263.093 35.3452 264.378C34.8439 265.663 34.5932 267.088 34.5932 268.655C34.5932 270.19 34.8439 271.616 35.3452 272.932C35.8779 274.217 36.5986 275.329 37.5072 276.269C38.4472 277.209 39.5439 277.93 40.7972 278.431C42.0506 278.932 43.4136 279.183 44.8862 279.183ZM78.9965 285.669C74.3278 285.669 70.6775 284.369 68.0455 281.768C65.4135 279.167 64.0975 275.454 64.0975 270.629V252.205H71.7115V270.347C71.7115 273.48 72.3538 275.736 73.6385 277.115C74.9231 278.494 76.7248 279.183 79.0435 279.183C81.3621 279.183 83.1638 278.494 84.4485 277.115C85.7331 275.736 86.3755 273.48 86.3755 270.347V252.205H93.8955V270.629C93.8955 275.454 92.5795 279.167 89.9475 281.768C87.3155 284.369 83.6651 285.669 78.9965 285.669ZM103.454 285.105V258.409H92.9257V252.205H121.596V258.409H111.068V285.105H103.454ZM144.022 252.205H151.636V285.105H144.022V252.205ZM129.076 285.105H121.462V252.205H129.076V285.105ZM144.586 271.616H128.512V265.177H144.586V271.616ZM162.193 265.459H178.032V271.381H162.193V265.459ZM162.757 278.995H180.664V285.105H155.19V252.205H180.053V258.315H162.757V278.995ZM178.169 285.105L192.833 252.205H200.353L215.064 285.105H207.074L195.042 256.059H198.05L185.971 285.105H178.169ZM185.501 278.055L187.522 272.274H204.442L206.51 278.055H185.501ZM225.057 285.669C222.425 285.669 219.903 285.324 217.49 284.635C215.077 283.914 213.135 282.99 211.662 281.862L214.247 276.128C215.657 277.131 217.318 277.961 219.229 278.619C221.172 279.246 223.13 279.559 225.104 279.559C226.608 279.559 227.814 279.418 228.723 279.136C229.663 278.823 230.352 278.4 230.791 277.867C231.23 277.334 231.449 276.723 231.449 276.034C231.449 275.157 231.104 274.467 230.415 273.966C229.726 273.433 228.817 273.01 227.689 272.697C226.561 272.352 225.308 272.039 223.929 271.757C222.582 271.444 221.219 271.068 219.84 270.629C218.493 270.19 217.255 269.626 216.127 268.937C214.999 268.248 214.075 267.339 213.354 266.211C212.665 265.083 212.32 263.642 212.32 261.887C212.32 260.007 212.821 258.299 213.824 256.764C214.858 255.197 216.393 253.96 218.43 253.051C220.498 252.111 223.083 251.641 226.185 251.641C228.253 251.641 230.29 251.892 232.295 252.393C234.3 252.863 236.071 253.584 237.606 254.555L235.256 260.336C233.721 259.459 232.185 258.816 230.65 258.409C229.115 257.97 227.611 257.751 226.138 257.751C224.665 257.751 223.459 257.923 222.519 258.268C221.579 258.613 220.905 259.067 220.498 259.631C220.091 260.164 219.887 260.79 219.887 261.511C219.887 262.357 220.232 263.046 220.921 263.579C221.61 264.08 222.519 264.488 223.647 264.801C224.775 265.114 226.013 265.428 227.36 265.741C228.739 266.054 230.102 266.415 231.449 266.822C232.828 267.229 234.081 267.778 235.209 268.467C236.337 269.156 237.246 270.065 237.935 271.193C238.656 272.321 239.016 273.747 239.016 275.47C239.016 277.319 238.499 279.011 237.465 280.546C236.431 282.081 234.88 283.319 232.812 284.259C230.775 285.199 228.19 285.669 225.057 285.669ZM246.345 285.105V258.409H235.817V252.205H264.487V258.409H253.959V285.105H246.345ZM271.356 265.459H287.195V271.381H271.356V265.459ZM271.92 278.995H289.827V285.105H264.353V252.205H289.216V258.315H271.92V278.995ZM291.656 285.105V252.205H305.897C308.842 252.205 311.38 252.691 313.511 253.662C315.641 254.602 317.286 255.965 318.446 257.751C319.605 259.537 320.185 261.668 320.185 264.143C320.185 266.587 319.605 268.702 318.446 270.488C317.286 272.243 315.641 273.59 313.511 274.53C311.38 275.47 308.842 275.94 305.897 275.94H295.886L299.27 272.603V285.105H291.656ZM312.571 285.105L304.346 273.167H312.477L320.796 285.105H312.571ZM299.27 273.449L295.886 269.877H305.474C307.824 269.877 309.578 269.376 310.738 268.373C311.897 267.339 312.477 265.929 312.477 264.143C312.477 262.326 311.897 260.916 310.738 259.913C309.578 258.91 307.824 258.409 305.474 258.409H295.886L299.27 254.79V273.449ZM321.987 285.105V252.205H328.285L347.696 275.893H344.641V252.205H352.161V285.105H345.91L326.452 261.417H329.507V285.105H321.987Z" fill="#4D4D4D"/>
<path d="M2.63455 314.105V294.505H11.5385C13.6665 294.505 15.5425 294.916 17.1665 295.737C18.7905 296.54 20.0599 297.669 20.9745 299.125C21.8892 300.581 22.3465 302.308 22.3465 304.305C22.3465 306.284 21.8892 308.01 20.9745 309.485C20.0599 310.941 18.7905 312.08 17.1665 312.901C15.5425 313.704 13.6665 314.105 11.5385 314.105H2.63455ZM7.17055 310.381H11.3145C12.6212 310.381 13.7505 310.138 14.7025 309.653C15.6732 309.149 16.4199 308.44 16.9425 307.525C17.4839 306.61 17.7545 305.537 17.7545 304.305C17.7545 303.054 17.4839 301.981 16.9425 301.085C16.4199 300.17 15.6732 299.47 14.7025 298.985C13.7505 298.481 12.6212 298.229 11.3145 298.229H7.17055V310.381ZM46.4874 314.105V294.505H51.0234V314.105H46.4874ZM82.8349 314.441C81.2669 314.441 79.7642 314.236 78.3269 313.825C76.8895 313.396 75.7322 312.845 74.8549 312.173L76.3949 308.757C77.2349 309.354 78.2242 309.849 79.3629 310.241C80.5202 310.614 81.6869 310.801 82.8629 310.801C83.7589 310.801 84.4775 310.717 85.0189 310.549C85.5789 310.362 85.9895 310.11 86.2509 309.793C86.5122 309.476 86.6429 309.112 86.6429 308.701C86.6429 308.178 86.4375 307.768 86.0269 307.469C85.6162 307.152 85.0749 306.9 84.4029 306.713C83.7309 306.508 82.9842 306.321 82.1629 306.153C81.3602 305.966 80.5482 305.742 79.7269 305.481C78.9242 305.22 78.1869 304.884 77.5149 304.473C76.8429 304.062 76.2922 303.521 75.8629 302.849C75.4522 302.177 75.2469 301.318 75.2469 300.273C75.2469 299.153 75.5455 298.136 76.1429 297.221C76.7589 296.288 77.6735 295.55 78.8869 295.009C80.1189 294.449 81.6589 294.169 83.5069 294.169C84.7389 294.169 85.9522 294.318 87.1469 294.617C88.3415 294.897 89.3962 295.326 90.3109 295.905L88.9109 299.349C87.9962 298.826 87.0815 298.444 86.1669 298.201C85.2522 297.94 84.3562 297.809 83.4789 297.809C82.6015 297.809 81.8829 297.912 81.3229 298.117C80.7629 298.322 80.3615 298.593 80.1189 298.929C79.8762 299.246 79.7549 299.62 79.7549 300.049C79.7549 300.553 79.9602 300.964 80.3709 301.281C80.7815 301.58 81.3229 301.822 81.9949 302.009C82.6669 302.196 83.4042 302.382 84.2069 302.569C85.0282 302.756 85.8402 302.97 86.6429 303.213C87.4642 303.456 88.2109 303.782 88.8829 304.193C89.5549 304.604 90.0962 305.145 90.5069 305.817C90.9362 306.489 91.1509 307.338 91.1509 308.365C91.1509 309.466 90.8429 310.474 90.2269 311.389C89.6109 312.304 88.6869 313.041 87.4549 313.601C86.2415 314.161 84.7015 314.441 82.8349 314.441ZM112.394 314.105L121.13 294.505H125.61L134.374 314.105H129.614L122.446 296.801H124.238L117.042 314.105H112.394ZM116.762 309.905L117.966 306.461H128.046L129.278 309.905H116.762ZM157.128 314.105V294.505H166.704C169.168 294.505 171.016 294.972 172.248 295.905C173.499 296.838 174.124 298.07 174.124 299.601C174.124 300.628 173.872 301.524 173.368 302.289C172.864 303.036 172.173 303.614 171.296 304.025C170.419 304.436 169.411 304.641 168.272 304.641L168.804 303.493C170.036 303.493 171.128 303.698 172.08 304.109C173.032 304.501 173.769 305.089 174.292 305.873C174.833 306.657 175.104 307.618 175.104 308.757C175.104 310.437 174.441 311.753 173.116 312.705C171.791 313.638 169.84 314.105 167.264 314.105H157.128ZM161.636 310.689H166.928C168.104 310.689 168.991 310.502 169.588 310.129C170.204 309.737 170.512 309.121 170.512 308.281C170.512 307.46 170.204 306.853 169.588 306.461C168.991 306.05 168.104 305.845 166.928 305.845H161.3V302.541H166.144C167.245 302.541 168.085 302.354 168.664 301.981C169.261 301.589 169.56 301.001 169.56 300.217C169.56 299.452 169.261 298.882 168.664 298.509C168.085 298.117 167.245 297.921 166.144 297.921H161.636V310.689ZM199.258 314.105V294.505H203.794V314.105H199.258ZM229.165 314.105V294.505H233.701V310.409H243.529V314.105H229.165ZM266.784 314.105V294.505H271.32V314.105H266.784ZM300.751 314.105V298.201H294.479V294.505H311.559V298.201H305.287V314.105H300.751ZM339.209 314.105V306.097L340.245 308.841L331.621 294.505H336.437L343.045 305.509H340.273L346.909 294.505H351.361L342.737 308.841L343.745 306.097V314.105H339.209Z" fill="#A30505"/>
</g>
</svg>
