<svg width="402" height="323" viewBox="0 0 402 323" fill="none" xmlns="http://www.w3.org/2000/svg">
<path d="M401.388 32.9648L377.349 129.119L328.554 147.124C323.745 149.28 307.59 151.601 293.264 145.234C278.937 138.867 225.446 105.876 198.916 89.9575C194.054 86.5365 184.871 76.7236 194.794 65.5369C202.555 56.7875 215.179 61.889 219.489 65.5369L238.797 76.6335C244.109 79.0643 254.591 82.1368 260.044 73.2125C265.002 65.0976 260.612 54.9224 257.793 51.6061C252.377 45.465 226.07 33.4451 204.525 34.9193C196.653 34.9005 180.37 37.832 152.035 55.9526L131.64 67.228C129.153 68.8862 118.865 74.7725 110.239 65.0201C103.711 57.6399 105.805 50.5681 107.629 47.915C108.977 45.8087 108.984 43.9447 123.203 36.5717C138.531 28.6237 147.111 23.2222 157.863 17.8461C168.082 12.7367 183.319 2.31047 218.638 0.818142C246.892 -0.37572 274.222 12.3274 284.171 18.2968C293.456 22.9395 311.82 33.4562 333.812 55.5717L401.388 32.9648Z" fill="#A30505"/>
<path d="M0.870209 184.283L24.9093 88.1284L73.7037 70.1231C78.5124 67.9675 94.6679 65.6464 108.994 72.0137C123.321 78.3809 176.812 111.372 203.342 127.29C208.204 130.711 217.386 140.524 207.464 151.711C199.703 160.46 187.079 155.359 182.768 151.711L163.46 140.614C158.149 138.183 147.666 135.111 142.214 144.035C137.256 152.15 141.646 162.325 144.465 165.641C149.881 171.783 176.188 183.802 197.733 182.328C205.605 182.347 221.888 179.416 250.223 161.295L270.618 150.02C273.105 148.361 283.393 142.475 292.019 152.227C298.547 159.608 296.453 166.68 294.629 169.333C293.281 171.439 293.274 173.303 279.055 180.676C263.727 188.624 255.147 194.025 244.394 199.401C234.176 204.511 218.939 214.937 183.62 216.429C155.365 217.623 128.036 204.92 118.087 198.951C108.801 194.308 90.438 183.791 68.4454 161.676L0.870209 184.283Z" fill="#4D4D4D"/>
<path d="M15.2681 289.12C12.6921 289.12 10.2235 288.783 7.86212 288.108C5.50078 287.403 3.59945 286.498 2.15812 285.394L4.68812 279.782C6.06812 280.763 7.69345 281.576 9.56412 282.22C11.4655 282.833 13.3821 283.14 15.3141 283.14C16.7861 283.14 17.9668 283.002 18.8561 282.726C19.7761 282.419 20.4508 282.005 20.8801 281.484C21.3095 280.963 21.5241 280.365 21.5241 279.69C21.5241 278.831 21.1868 278.157 20.5121 277.666C19.8375 277.145 18.9481 276.731 17.8441 276.424C16.7401 276.087 15.5135 275.78 14.1641 275.504C12.8455 275.197 11.5115 274.829 10.1621 274.4C8.84345 273.971 7.63212 273.419 6.52812 272.744C5.42412 272.069 4.51945 271.18 3.81412 270.076C3.13945 268.972 2.80212 267.561 2.80212 265.844C2.80212 264.004 3.29278 262.333 4.27412 260.83C5.28612 259.297 6.78878 258.085 8.78212 257.196C10.8061 256.276 13.3361 255.816 16.3721 255.816C18.3961 255.816 20.3895 256.061 22.3521 256.552C24.3148 257.012 26.0475 257.717 27.5501 258.668L25.2501 264.326C23.7475 263.467 22.2448 262.839 20.7421 262.44C19.2395 262.011 17.7675 261.796 16.3261 261.796C14.8848 261.796 13.7041 261.965 12.7841 262.302C11.8641 262.639 11.2048 263.084 10.8061 263.636C10.4075 264.157 10.2081 264.771 10.2081 265.476C10.2081 266.304 10.5455 266.979 11.2201 267.5C11.8948 267.991 12.7841 268.389 13.8881 268.696C14.9921 269.003 16.2035 269.309 17.5221 269.616C18.8715 269.923 20.2055 270.275 21.5241 270.674C22.8735 271.073 24.1001 271.609 25.2041 272.284C26.3081 272.959 27.1975 273.848 27.8721 274.952C28.5775 276.056 28.9301 277.451 28.9301 279.138C28.9301 280.947 28.4241 282.603 27.4121 284.106C26.4001 285.609 24.8821 286.82 22.8581 287.74C20.8648 288.66 18.3348 289.12 15.2681 289.12ZM49.6621 289.12C47.1168 289.12 44.7554 288.706 42.5781 287.878C40.4314 287.05 38.5608 285.885 36.9661 284.382C35.4021 282.879 34.1754 281.116 33.2861 279.092C32.4274 277.068 31.9981 274.86 31.9981 272.468C31.9981 270.076 32.4274 267.868 33.2861 265.844C34.1754 263.82 35.4174 262.057 37.0121 260.554C38.6068 259.051 40.4774 257.886 42.6241 257.058C44.7708 256.23 47.1014 255.816 49.6161 255.816C52.1614 255.816 54.4921 256.23 56.6081 257.058C58.7548 257.886 60.6101 259.051 62.1741 260.554C63.7688 262.057 65.0108 263.82 65.9001 265.844C66.7894 267.837 67.2341 270.045 67.2341 272.468C67.2341 274.86 66.7894 277.083 65.9001 279.138C65.0108 281.162 63.7688 282.925 62.1741 284.428C60.6101 285.9 58.7548 287.05 56.6081 287.878C54.4921 288.706 52.1768 289.12 49.6621 289.12ZM49.6161 282.772C51.0574 282.772 52.3761 282.527 53.5721 282.036C54.7988 281.545 55.8721 280.84 56.7921 279.92C57.7121 279 58.4174 277.911 58.9081 276.654C59.4294 275.397 59.6901 274.001 59.6901 272.468C59.6901 270.935 59.4294 269.539 58.9081 268.282C58.4174 267.025 57.7121 265.936 56.7921 265.016C55.9028 264.096 54.8448 263.391 53.6181 262.9C52.3914 262.409 51.0574 262.164 49.6161 262.164C48.1748 262.164 46.8408 262.409 45.6141 262.9C44.4181 263.391 43.3601 264.096 42.4401 265.016C41.5201 265.936 40.7994 267.025 40.2781 268.282C39.7874 269.539 39.5421 270.935 39.5421 272.468C39.5421 273.971 39.7874 275.366 40.2781 276.654C40.7994 277.911 41.5048 279 42.3941 279.92C43.3141 280.84 44.3874 281.545 45.6141 282.036C46.8408 282.527 48.1748 282.772 49.6161 282.772ZM87.1406 289.12C82.5713 289.12 78.9986 287.847 76.4226 285.302C73.8466 282.757 72.5586 279.123 72.5586 274.4V256.368H80.0106V274.124C80.0106 277.191 80.6393 279.399 81.8966 280.748C83.1539 282.097 84.9173 282.772 87.1866 282.772C89.4559 282.772 91.2193 282.097 92.4766 280.748C93.7339 279.399 94.3626 277.191 94.3626 274.124V256.368H101.723V274.4C101.723 279.123 100.435 282.757 97.8586 285.302C95.2826 287.847 91.7099 289.12 87.1406 289.12ZM115.217 288.568V262.44H104.913V256.368H132.973V262.44H122.669V288.568H115.217ZM159.063 256.368H166.515V288.568H159.063V256.368ZM144.435 288.568H136.983V256.368H144.435V288.568ZM159.615 275.366H143.883V269.064H159.615V275.366ZM180.987 269.34H196.489V275.136H180.987V269.34ZM181.539 282.588H199.065V288.568H174.133V256.368H198.467V262.348H181.539V282.588ZM200.763 288.568L215.115 256.368H222.475L236.873 288.568H229.053L217.277 260.14H220.221L208.399 288.568H200.763ZM207.939 281.668L209.917 276.01H226.477L228.501 281.668H207.939ZM250.794 289.12C248.218 289.12 245.749 288.783 243.388 288.108C241.026 287.403 239.125 286.498 237.684 285.394L240.214 279.782C241.594 280.763 243.219 281.576 245.09 282.22C246.991 282.833 248.908 283.14 250.84 283.14C252.312 283.14 253.492 283.002 254.382 282.726C255.302 282.419 255.976 282.005 256.406 281.484C256.835 280.963 257.05 280.365 257.05 279.69C257.05 278.831 256.712 278.157 256.038 277.666C255.363 277.145 254.474 276.731 253.37 276.424C252.266 276.087 251.039 275.78 249.69 275.504C248.371 275.197 247.037 274.829 245.688 274.4C244.369 273.971 243.158 273.419 242.054 272.744C240.95 272.069 240.045 271.18 239.34 270.076C238.665 268.972 238.328 267.561 238.328 265.844C238.328 264.004 238.818 262.333 239.8 260.83C240.812 259.297 242.314 258.085 244.308 257.196C246.332 256.276 248.862 255.816 251.898 255.816C253.922 255.816 255.915 256.061 257.878 256.552C259.84 257.012 261.573 257.717 263.076 258.668L260.776 264.326C259.273 263.467 257.77 262.839 256.268 262.44C254.765 262.011 253.293 261.796 251.852 261.796C250.41 261.796 249.23 261.965 248.31 262.302C247.39 262.639 246.73 263.084 246.332 263.636C245.933 264.157 245.734 264.771 245.734 265.476C245.734 266.304 246.071 266.979 246.746 267.5C247.42 267.991 248.31 268.389 249.414 268.696C250.518 269.003 251.729 269.309 253.048 269.616C254.397 269.923 255.731 270.275 257.05 270.674C258.399 271.073 259.626 271.609 260.73 272.284C261.834 272.959 262.723 273.848 263.398 274.952C264.103 276.056 264.456 277.451 264.456 279.138C264.456 280.947 263.95 282.603 262.938 284.106C261.926 285.609 260.408 286.82 258.384 287.74C256.39 288.66 253.86 289.12 250.794 289.12ZM275.768 288.568V262.44H265.464V256.368H293.524V262.44H283.22V288.568H275.768ZM304.388 269.34H319.89V275.136H304.388V269.34ZM304.94 282.588H322.466V288.568H297.534V256.368H321.868V262.348H304.94V282.588ZM328.395 288.568V256.368H342.333C345.216 256.368 347.7 256.843 349.785 257.794C351.87 258.714 353.48 260.048 354.615 261.796C355.75 263.544 356.317 265.629 356.317 268.052C356.317 270.444 355.75 272.514 354.615 274.262C353.48 275.979 351.87 277.298 349.785 278.218C347.7 279.138 345.216 279.598 342.333 279.598H332.535L335.847 276.332V288.568H328.395ZM348.865 288.568L340.815 276.884H348.773L356.915 288.568H348.865ZM335.847 277.16L332.535 273.664H341.919C344.219 273.664 345.936 273.173 347.071 272.192C348.206 271.18 348.773 269.8 348.773 268.052C348.773 266.273 348.206 264.893 347.071 263.912C345.936 262.931 344.219 262.44 341.919 262.44H332.535L335.847 258.898V277.16ZM362.221 288.568V256.368H368.385L387.383 279.552H384.393V256.368H391.753V288.568H385.635L366.591 265.384H369.581V288.568H362.221Z" fill="#4D4D4D"/>
<path d="M2.86212 316.105V299.305H10.4941C12.3181 299.305 13.9261 299.657 15.3181 300.361C16.7101 301.049 17.7981 302.017 18.5821 303.265C19.3661 304.513 19.7581 305.993 19.7581 307.705C19.7581 309.401 19.3661 310.881 18.5821 312.145C17.7981 313.393 16.7101 314.369 15.3181 315.073C13.9261 315.761 12.3181 316.105 10.4941 316.105H2.86212ZM6.75012 312.913H10.3021C11.4221 312.913 12.3901 312.705 13.2061 312.289C14.0381 311.857 14.6781 311.249 15.1261 310.465C15.5901 309.681 15.8221 308.761 15.8221 307.705C15.8221 306.633 15.5901 305.713 15.1261 304.945C14.6781 304.161 14.0381 303.561 13.2061 303.145C12.3901 302.713 11.4221 302.497 10.3021 302.497H6.75012V312.913ZM49.8102 316.105V299.305H53.6982V316.105H49.8102ZM90.3252 316.393C88.9812 316.393 87.6932 316.217 86.4612 315.865C85.2292 315.497 84.2372 315.025 83.4852 314.449L84.8052 311.521C85.5252 312.033 86.3732 312.457 87.3492 312.793C88.3412 313.113 89.3412 313.273 90.3492 313.273C91.1172 313.273 91.7332 313.201 92.1972 313.057C92.6772 312.897 93.0292 312.681 93.2532 312.409C93.4772 312.137 93.5892 311.825 93.5892 311.473C93.5892 311.025 93.4132 310.673 93.0612 310.417C92.7092 310.145 92.2452 309.929 91.6692 309.769C91.0932 309.593 90.4532 309.433 89.7492 309.289C89.0612 309.129 88.3652 308.937 87.6612 308.713C86.9732 308.489 86.3412 308.201 85.7652 307.849C85.1892 307.497 84.7172 307.033 84.3492 306.457C83.9972 305.881 83.8212 305.145 83.8212 304.249C83.8212 303.289 84.0772 302.417 84.5892 301.633C85.1172 300.833 85.9012 300.201 86.9412 299.737C87.9972 299.257 89.3172 299.017 90.9012 299.017C91.9572 299.017 92.9972 299.145 94.0212 299.401C95.0452 299.641 95.9492 300.009 96.7332 300.505L95.5332 303.457C94.7492 303.009 93.9652 302.681 93.1812 302.473C92.3972 302.249 91.6292 302.137 90.8772 302.137C90.1252 302.137 89.5092 302.225 89.0292 302.401C88.5492 302.577 88.2052 302.809 87.9972 303.097C87.7892 303.369 87.6852 303.689 87.6852 304.057C87.6852 304.489 87.8612 304.841 88.2132 305.113C88.5652 305.369 89.0292 305.577 89.6052 305.737C90.1812 305.897 90.8132 306.057 91.5012 306.217C92.2052 306.377 92.9012 306.561 93.5892 306.769C94.2932 306.977 94.9332 307.257 95.5092 307.609C96.0852 307.961 96.5492 308.425 96.9012 309.001C97.2692 309.577 97.4532 310.305 97.4532 311.185C97.4532 312.129 97.1892 312.993 96.6612 313.777C96.1332 314.561 95.3412 315.193 94.2852 315.673C93.2452 316.153 91.9252 316.393 90.3252 316.393ZM125.022 316.105L132.51 299.305H136.35L143.862 316.105H139.782L133.638 301.273H135.174L129.006 316.105H125.022ZM128.766 312.505L129.798 309.553H138.438L139.494 312.505H128.766ZM172.725 316.105V299.305H180.933C183.045 299.305 184.629 299.705 185.685 300.505C186.757 301.305 187.293 302.361 187.293 303.673C187.293 304.553 187.077 305.321 186.645 305.977C186.213 306.617 185.621 307.113 184.869 307.465C184.117 307.817 183.253 307.993 182.277 307.993L182.733 307.009C183.789 307.009 184.725 307.185 185.541 307.537C186.357 307.873 186.989 308.377 187.437 309.049C187.901 309.721 188.133 310.545 188.133 311.521C188.133 312.961 187.565 314.089 186.429 314.905C185.293 315.705 183.621 316.105 181.413 316.105H172.725ZM176.589 313.177H181.125C182.133 313.177 182.893 313.017 183.405 312.697C183.933 312.361 184.197 311.833 184.197 311.113C184.197 310.409 183.933 309.889 183.405 309.553C182.893 309.201 182.133 309.025 181.125 309.025H176.301V306.193H180.453C181.397 306.193 182.117 306.033 182.613 305.713C183.125 305.377 183.381 304.873 183.381 304.201C183.381 303.545 183.125 303.057 182.613 302.737C182.117 302.401 181.397 302.233 180.453 302.233H176.589V313.177ZM218.196 316.105V299.305H222.084V316.105H218.196ZM253.191 316.105V299.305H257.079V312.937H265.503V316.105H253.191ZM294.796 316.105V299.305H298.684V316.105H294.796ZM333.271 316.105V302.473H327.895V299.305H342.535V302.473H337.159V316.105H333.271ZM375.595 316.105V309.241L376.483 311.593L369.091 299.305H373.219L378.883 308.737H376.507L382.195 299.305H386.011L378.619 311.593L379.483 309.241V316.105H375.595Z" fill="#A30505"/>
</svg>
