<svg width="524" height="346" viewBox="0 0 524 346" fill="none" xmlns="http://www.w3.org/2000/svg">
<path d="M458.744 32.2253L434.705 128.38L385.911 146.385C381.102 148.541 364.946 150.862 350.62 144.494C336.294 138.127 282.802 105.136 256.272 89.218C251.411 85.797 242.228 75.9841 252.151 64.7974C259.911 56.048 272.535 61.1495 276.846 64.7974L296.154 75.894C301.465 78.3248 311.948 81.3973 317.4 72.473C322.358 64.3581 317.968 54.1829 315.15 50.8666C309.734 44.7255 283.426 32.7056 261.881 34.1798C254.009 34.161 237.727 37.0925 209.392 55.2131L188.997 66.4885C186.509 68.1467 176.222 74.033 167.595 64.2806C161.067 56.9004 163.161 49.8286 164.985 47.1755C166.334 45.0692 166.34 43.2052 180.56 35.8322C195.888 27.8842 204.468 22.4827 215.22 17.1066C225.439 11.9972 240.676 1.57097 275.994 0.0786401C304.249 -1.11522 331.578 11.5879 341.527 17.5573C350.813 22.2 369.176 32.7167 391.169 54.8322L458.744 32.2253Z" fill="#A30505"/>
<path d="M58.2267 183.543L82.2657 87.3889L131.06 69.3836C135.869 67.228 152.024 64.9069 166.351 71.2742C180.677 77.6414 234.168 110.632 260.699 126.551C265.56 129.972 274.743 139.784 264.82 150.971C257.059 159.721 244.436 154.619 240.125 150.971L220.817 139.875C215.505 137.444 205.023 134.371 199.571 143.296C194.613 151.41 199.002 161.586 201.821 164.902C207.237 171.043 233.545 183.063 255.09 181.589C262.962 181.608 279.244 178.676 307.579 160.555L327.974 149.28C330.461 147.622 340.749 141.736 349.375 151.488C355.903 158.868 353.809 165.94 351.985 168.593C350.637 170.699 350.631 172.563 336.411 179.936C321.083 187.884 312.503 193.286 301.751 198.662C291.532 203.771 276.295 214.198 240.977 215.69C212.722 216.884 185.392 204.181 175.443 198.211C166.158 193.569 147.794 183.052 125.802 160.936L58.2267 183.543Z" fill="#4D4D4D"/>
<path d="M19.093 301.708C15.677 301.708 12.4033 301.261 9.272 300.366C6.14067 299.431 3.61933 298.231 1.708 296.767L5.063 289.325C6.893 290.627 9.04833 291.704 11.529 292.558C14.0503 293.372 16.592 293.778 19.154 293.778C21.106 293.778 22.6717 293.595 23.851 293.229C25.071 292.823 25.9657 292.274 26.535 291.582C27.1043 290.891 27.389 290.098 27.389 289.203C27.389 288.065 26.9417 287.17 26.047 286.519C25.1523 285.828 23.973 285.279 22.509 284.872C21.045 284.425 19.4183 284.018 17.629 283.652C15.8803 283.246 14.1113 282.758 12.322 282.188C10.5733 281.619 8.967 280.887 7.503 279.992C6.039 279.098 4.83933 277.918 3.904 276.454C3.00933 274.99 2.562 273.12 2.562 270.842C2.562 268.402 3.21267 266.186 4.514 264.193C5.856 262.16 7.84867 260.554 10.492 259.374C13.176 258.154 16.531 257.544 20.557 257.544C23.241 257.544 25.8843 257.87 28.487 258.52C31.0897 259.13 33.3873 260.066 35.38 261.326L32.33 268.829C30.3373 267.691 28.3447 266.857 26.352 266.328C24.3593 265.759 22.4073 265.474 20.496 265.474C18.5847 265.474 17.019 265.698 15.799 266.145C14.579 266.593 13.7047 267.182 13.176 267.914C12.6473 268.606 12.383 269.419 12.383 270.354C12.383 271.452 12.8303 272.347 13.725 273.038C14.6197 273.689 15.799 274.218 17.263 274.624C18.727 275.031 20.3333 275.438 22.082 275.844C23.8713 276.251 25.6403 276.719 27.389 277.247C29.1783 277.776 30.805 278.488 32.269 279.382C33.733 280.277 34.9123 281.456 35.807 282.92C36.7423 284.384 37.21 286.235 37.21 288.471C37.21 290.871 36.539 293.067 35.197 295.059C33.855 297.052 31.842 298.658 29.158 299.878C26.5147 301.098 23.1597 301.708 19.093 301.708ZM64.7024 301.708C61.3271 301.708 58.1957 301.159 55.3084 300.061C52.4617 298.963 49.9811 297.418 47.8664 295.425C45.7924 293.433 44.1657 291.094 42.9864 288.41C41.8477 285.726 41.2784 282.798 41.2784 279.626C41.2784 276.454 41.8477 273.526 42.9864 270.842C44.1657 268.158 45.8127 265.82 47.9274 263.827C50.0421 261.835 52.5227 260.289 55.3694 259.191C58.2161 258.093 61.3067 257.544 64.6414 257.544C68.0167 257.544 71.1074 258.093 73.9134 259.191C76.7601 260.289 79.2204 261.835 81.2944 263.827C83.4091 265.82 85.0561 268.158 86.2354 270.842C87.4148 273.486 88.0044 276.414 88.0044 279.626C88.0044 282.798 87.4148 285.747 86.2354 288.471C85.0561 291.155 83.4091 293.494 81.2944 295.486C79.2204 297.438 76.7601 298.963 73.9134 300.061C71.1074 301.159 68.0371 301.708 64.7024 301.708ZM64.6414 293.29C66.5527 293.29 68.3014 292.965 69.8874 292.314C71.5141 291.664 72.9374 290.728 74.1574 289.508C75.3774 288.288 76.3127 286.845 76.9634 285.177C77.6547 283.51 78.0004 281.66 78.0004 279.626C78.0004 277.593 77.6547 275.743 76.9634 274.075C76.3127 272.408 75.3774 270.964 74.1574 269.744C72.9781 268.524 71.5751 267.589 69.9484 266.938C68.3217 266.288 66.5527 265.962 64.6414 265.962C62.7301 265.962 60.9611 266.288 59.3344 266.938C57.7484 267.589 56.3454 268.524 55.1254 269.744C53.9054 270.964 52.9497 272.408 52.2584 274.075C51.6077 275.743 51.2824 277.593 51.2824 279.626C51.2824 281.619 51.6077 283.469 52.2584 285.177C52.9497 286.845 53.8851 288.288 55.0644 289.508C56.2844 290.728 57.7077 291.664 59.3344 292.314C60.9611 292.965 62.7301 293.29 64.6414 293.29ZM114.402 301.708C108.343 301.708 103.605 300.021 100.189 296.645C96.7732 293.27 95.0652 288.451 95.0652 282.188V258.276H104.947V281.822C104.947 285.889 105.781 288.817 107.448 290.606C109.115 292.396 111.454 293.29 114.463 293.29C117.472 293.29 119.811 292.396 121.478 290.606C123.145 288.817 123.979 285.889 123.979 281.822V258.276H133.739V282.188C133.739 288.451 132.031 293.27 128.615 296.645C125.199 300.021 120.461 301.708 114.402 301.708ZM151.635 300.976V266.328H137.971V258.276H175.181V266.328H161.517V300.976H151.635ZM209.778 258.276H219.66V300.976H209.778V258.276ZM190.38 300.976H180.498V258.276H190.38V300.976ZM210.51 283.469H189.648V275.112H210.51V283.469ZM238.851 275.478H259.408V283.164H238.851V275.478ZM239.583 293.046H262.824V300.976H229.762V258.276H262.031V266.206H239.583V293.046ZM265.075 300.976L284.107 258.276H293.867L312.96 300.976H302.59L286.974 263.278H290.878L275.201 300.976H265.075ZM274.591 291.826L277.214 284.323H299.174L301.858 291.826H274.591ZM331.42 301.708C328.004 301.708 324.73 301.261 321.599 300.366C318.468 299.431 315.946 298.231 314.035 296.767L317.39 289.325C319.22 290.627 321.375 291.704 323.856 292.558C326.377 293.372 328.919 293.778 331.481 293.778C333.433 293.778 334.999 293.595 336.178 293.229C337.398 292.823 338.293 292.274 338.862 291.582C339.431 290.891 339.716 290.098 339.716 289.203C339.716 288.065 339.269 287.17 338.374 286.519C337.479 285.828 336.3 285.279 334.836 284.872C333.372 284.425 331.745 284.018 329.956 283.652C328.207 283.246 326.438 282.758 324.649 282.188C322.9 281.619 321.294 280.887 319.83 279.992C318.366 279.098 317.166 277.918 316.231 276.454C315.336 274.99 314.889 273.12 314.889 270.842C314.889 268.402 315.54 266.186 316.841 264.193C318.183 262.16 320.176 260.554 322.819 259.374C325.503 258.154 328.858 257.544 332.884 257.544C335.568 257.544 338.211 257.87 340.814 258.52C343.417 259.13 345.714 260.066 347.707 261.326L344.657 268.829C342.664 267.691 340.672 266.857 338.679 266.328C336.686 265.759 334.734 265.474 332.823 265.474C330.912 265.474 329.346 265.698 328.126 266.145C326.906 266.593 326.032 267.182 325.503 267.914C324.974 268.606 324.71 269.419 324.71 270.354C324.71 271.452 325.157 272.347 326.052 273.038C326.947 273.689 328.126 274.218 329.59 274.624C331.054 275.031 332.66 275.438 334.409 275.844C336.198 276.251 337.967 276.719 339.716 277.247C341.505 277.776 343.132 278.488 344.596 279.382C346.06 280.277 347.239 281.456 348.134 282.92C349.069 284.384 349.537 286.235 349.537 288.471C349.537 290.871 348.866 293.067 347.524 295.059C346.182 297.052 344.169 298.658 341.485 299.878C338.842 301.098 335.487 301.708 331.42 301.708ZM364.539 300.976V266.328H350.875V258.276H388.085V266.328H374.421V300.976H364.539ZM402.491 275.478H423.048V283.164H402.491V275.478ZM403.223 293.046H426.464V300.976H393.402V258.276H425.671V266.206H403.223V293.046ZM434.327 300.976V258.276H452.81C456.632 258.276 459.926 258.907 462.692 260.167C465.457 261.387 467.592 263.156 469.097 265.474C470.601 267.792 471.354 270.558 471.354 273.77C471.354 276.942 470.601 279.687 469.097 282.005C467.592 284.283 465.457 286.031 462.692 287.251C459.926 288.471 456.632 289.081 452.81 289.081H439.817L444.209 284.75V300.976H434.327ZM461.472 300.976L450.797 285.482H461.35L472.147 300.976H461.472ZM444.209 285.848L439.817 281.212H452.261C455.311 281.212 457.588 280.562 459.093 279.26C460.597 277.918 461.35 276.088 461.35 273.77C461.35 271.412 460.597 269.582 459.093 268.28C457.588 266.979 455.311 266.328 452.261 266.328H439.817L444.209 261.631V285.848ZM479.183 300.976V258.276H487.357L512.55 289.02H508.585V258.276H518.345V300.976H510.232L484.978 270.232H488.943V300.976H479.183Z" fill="#4D4D4D"/>
<path d="M4.98608 337.365V314.965H15.1621C17.5941 314.965 19.7381 315.435 21.5941 316.373C23.4501 317.291 24.9007 318.581 25.9461 320.245C26.9914 321.909 27.5141 323.883 27.5141 326.165C27.5141 328.427 26.9914 330.4 25.9461 332.085C24.9007 333.749 23.4501 335.051 21.5941 335.989C19.7381 336.907 17.5941 337.365 15.1621 337.365H4.98608ZM10.1701 333.109H14.9061C16.3994 333.109 17.6901 332.832 18.7781 332.277C19.8874 331.701 20.7407 330.891 21.3381 329.845C21.9567 328.8 22.2661 327.573 22.2661 326.165C22.2661 324.736 21.9567 323.509 21.3381 322.485C20.7407 321.44 19.8874 320.64 18.7781 320.085C17.6901 319.509 16.3994 319.221 14.9061 319.221H10.1701V333.109ZM67.5836 337.365V314.965H72.7676V337.365H67.5836ZM121.604 337.749C119.812 337.749 118.094 337.515 116.452 337.045C114.809 336.555 113.486 335.925 112.484 335.157L114.244 331.253C115.204 331.936 116.334 332.501 117.636 332.949C118.958 333.376 120.292 333.589 121.636 333.589C122.66 333.589 123.481 333.493 124.1 333.301C124.74 333.088 125.209 332.8 125.508 332.437C125.806 332.075 125.956 331.659 125.956 331.189C125.956 330.592 125.721 330.123 125.252 329.781C124.782 329.419 124.164 329.131 123.396 328.917C122.628 328.683 121.774 328.469 120.836 328.277C119.918 328.064 118.99 327.808 118.052 327.509C117.134 327.211 116.292 326.827 115.524 326.357C114.756 325.888 114.126 325.269 113.636 324.501C113.166 323.733 112.932 322.752 112.932 321.557C112.932 320.277 113.273 319.115 113.956 318.069C114.66 317.003 115.705 316.16 117.092 315.541C118.5 314.901 120.26 314.581 122.372 314.581C123.78 314.581 125.166 314.752 126.532 315.093C127.897 315.413 129.102 315.904 130.148 316.565L128.548 320.501C127.502 319.904 126.457 319.467 125.412 319.189C124.366 318.891 123.342 318.741 122.34 318.741C121.337 318.741 120.516 318.859 119.876 319.093C119.236 319.328 118.777 319.637 118.5 320.021C118.222 320.384 118.084 320.811 118.084 321.301C118.084 321.877 118.318 322.347 118.788 322.709C119.257 323.051 119.876 323.328 120.644 323.541C121.412 323.755 122.254 323.968 123.172 324.181C124.11 324.395 125.038 324.64 125.956 324.917C126.894 325.195 127.748 325.568 128.516 326.037C129.284 326.507 129.902 327.125 130.372 327.893C130.862 328.661 131.108 329.632 131.108 330.805C131.108 332.064 130.756 333.216 130.052 334.261C129.348 335.307 128.292 336.149 126.884 336.789C125.497 337.429 123.737 337.749 121.604 337.749ZM167.866 337.365L177.85 314.965H182.97L192.986 337.365H187.546L179.354 317.589H181.402L173.178 337.365H167.866ZM172.858 332.565L174.234 328.629H185.754L187.162 332.565H172.858ZM231.47 337.365V314.965H242.414C245.23 314.965 247.342 315.499 248.75 316.565C250.179 317.632 250.894 319.04 250.894 320.789C250.894 321.963 250.606 322.987 250.03 323.861C249.454 324.715 248.664 325.376 247.662 325.845C246.659 326.315 245.507 326.549 244.206 326.549L244.814 325.237C246.222 325.237 247.47 325.472 248.558 325.941C249.646 326.389 250.488 327.061 251.086 327.957C251.704 328.853 252.014 329.952 252.014 331.253C252.014 333.173 251.256 334.677 249.742 335.765C248.227 336.832 245.998 337.365 243.054 337.365H231.47ZM236.622 333.461H242.67C244.014 333.461 245.027 333.248 245.71 332.821C246.414 332.373 246.766 331.669 246.766 330.709C246.766 329.771 246.414 329.077 245.71 328.629C245.027 328.16 244.014 327.925 242.67 327.925H236.238V324.149H241.774C243.032 324.149 243.992 323.936 244.654 323.509C245.336 323.061 245.678 322.389 245.678 321.493C245.678 320.619 245.336 319.968 244.654 319.541C243.992 319.093 243.032 318.869 241.774 318.869H236.622V333.461ZM292.099 337.365V314.965H297.283V337.365H292.099ZM338.759 337.365V314.965H343.943V333.141H355.175V337.365H338.759ZM394.231 337.365V314.965H399.415V337.365H394.231ZM445.531 337.365V319.189H438.363V314.965H457.883V319.189H450.715V337.365H445.531ZM501.963 337.365V328.213L503.147 331.349L493.291 314.965H498.795L506.347 327.541H503.179L510.763 314.965H515.851L505.995 331.349L507.147 328.213V337.365H501.963Z" fill="#A30505"/>
</svg>
