<svg width="32" height="32" viewBox="0 0 32 32" fill="none" xmlns="http://www.w3.org/2000/svg">
<mask id="mask0_223_9" style="mask-type:alpha" maskUnits="userSpaceOnUse" x="0" y="0" width="32" height="32">
<circle cx="16" cy="16" r="16" fill="#D9D9D9"/>
</mask>
<g mask="url(#mask0_223_9)">
<path d="M39.9999 6.61656L37.0684 18.3431L31.1179 20.5389C30.5315 20.8018 28.5614 21.0849 26.8143 20.3083C25.0672 19.5318 18.544 15.5084 15.3086 13.5671C14.7158 13.1499 13.596 11.9532 14.806 10.5889C15.7524 9.52186 17.2919 10.144 17.8176 10.5889L20.1722 11.9422C20.8199 12.2386 22.0982 12.6133 22.7631 11.525C23.3678 10.5353 22.8324 9.2944 22.4887 8.88996C21.8282 8.14102 18.62 6.67514 15.9926 6.85492C15.0327 6.85263 13.047 7.21014 9.59161 9.42004L7.10447 10.7951C6.80113 10.9973 5.54655 11.7152 4.49458 10.5259C3.6985 9.62581 3.95385 8.76336 4.17631 8.43981C4.34072 8.18293 4.34151 7.95562 6.07556 7.05643C7.94482 6.08715 8.99114 5.4284 10.3024 4.77276C11.5485 4.14964 13.4067 2.87811 17.7137 2.69611C21.1594 2.55052 24.4922 4.09973 25.7054 4.82772C26.8378 5.39393 29.0772 6.67649 31.7592 9.37359L39.9999 6.61656Z" fill="#A30505"/>
<path d="M-8.8456 25.0705L-5.91406 13.344L0.0363766 11.1481C0.622786 10.8852 2.59293 10.6022 4.34002 11.3787C6.0871 12.1552 12.6103 16.1786 15.8457 18.1199C16.4385 18.5371 17.5583 19.7339 16.3483 21.0981C15.4019 22.1652 13.8624 21.543 13.3367 21.0981L10.9821 19.7448C10.3344 19.4484 9.05605 19.0737 8.39115 20.162C7.78654 21.1517 8.32186 22.3926 8.66561 22.7971C9.32608 23.546 12.5343 25.0119 15.1617 24.8321C16.1216 24.8344 18.1073 24.4769 21.5627 22.267L24.0498 20.8919C24.3532 20.6897 25.6077 19.9718 26.6597 21.1611C27.4558 22.0612 27.2004 22.9236 26.978 23.2472C26.8136 23.5041 26.8128 23.7314 25.0787 24.6306C23.2095 25.5999 22.1632 26.2586 20.8519 26.9143C19.6058 27.5374 17.7476 28.8089 13.4406 28.9909C9.99494 29.1365 6.66212 27.5873 5.44886 26.8593C4.31649 26.2931 2.0771 25.0105 -0.604878 22.3134L-8.8456 25.0705Z" fill="#4D4D4D"/>
</g>
</svg>
