<svg width="282" height="282" viewBox="0 0 282 282" fill="none" xmlns="http://www.w3.org/2000/svg">
<mask id="mask0_224_69" style="mask-type:alpha" maskUnits="userSpaceOnUse" x="0" y="0" width="282" height="282">
<circle cx="140.818" cy="141.391" r="140.523" fill="#D9D9D9"/>
</mask>
<g mask="url(#mask0_224_69)">
<path d="M348.6 63.027L323.202 164.619L271.648 183.642C266.568 185.919 249.499 188.372 234.362 181.645C219.226 174.917 162.709 140.061 134.679 123.242C129.543 119.628 119.841 109.26 130.325 97.4409C138.524 88.1968 151.862 93.5867 156.416 97.4409L176.816 109.165C182.428 111.733 193.503 114.979 199.264 105.551C204.502 96.9768 199.864 86.2262 196.886 82.7224C191.164 76.2341 163.368 63.5345 140.605 65.092C132.288 65.0722 115.085 68.1695 85.1478 87.3147L63.5996 99.2277C60.9715 100.98 50.102 107.199 40.988 96.8949C34.0908 89.0974 36.3032 81.6257 38.2305 78.8226C39.655 76.5972 39.6618 74.6278 54.6853 66.8378C70.8802 58.4405 79.9454 52.7335 91.3055 47.0534C102.102 41.6551 118.201 30.6393 155.516 29.0626C185.369 27.8012 214.244 41.2227 224.755 47.5295C234.566 52.4349 253.968 63.5462 277.204 86.9123L348.6 63.027Z" fill="black"/>
<path d="M-74.565 222.901L-49.1666 121.31L2.38704 102.286C7.46759 100.009 24.5366 97.5566 39.6731 104.284C54.8095 111.011 111.326 145.868 139.356 162.686C144.492 166.3 154.194 176.668 143.711 188.488C135.511 197.732 122.173 192.342 117.619 188.488L97.2191 176.763C91.6072 174.195 80.532 170.949 74.7714 180.378C69.5331 188.952 74.1711 199.702 77.1493 203.206C82.8715 209.694 110.667 222.394 133.43 220.836C141.747 220.856 158.95 217.759 188.887 198.614L210.436 186.701C213.064 184.949 223.933 178.73 233.047 189.034C239.944 196.831 237.732 204.303 235.805 207.106C234.38 209.331 234.373 211.301 219.35 219.091C203.155 227.488 194.09 233.195 182.73 238.875C171.933 244.273 155.834 255.289 118.519 256.866C88.6663 258.127 59.7913 244.706 49.2799 238.399C39.4693 233.494 20.0676 222.382 -3.16868 199.016L-74.565 222.901Z" fill="black"/>
</g>
</svg>
