<svg width="32" height="32" viewBox="0 0 32 32" fill="none" xmlns="http://www.w3.org/2000/svg">
<path d="M32.0003 9.57469L30.0797 17.2571L26.1812 18.6957C25.797 18.8679 24.5062 19.0533 23.3616 18.5446C22.217 18.0359 17.9432 15.4 15.8235 14.1282C15.4351 13.8549 14.7014 13.0709 15.4942 12.1771C16.1143 11.478 17.1229 11.8856 17.4673 12.1771L19.0099 13.0637C19.4343 13.2579 20.2718 13.5034 20.7074 12.7904C21.1036 12.142 20.7528 11.329 20.5276 11.0641C20.0949 10.5734 17.993 9.61307 16.2716 9.73085C15.6427 9.72935 14.3418 9.96357 12.0779 11.4113L10.4484 12.3122C10.2497 12.4447 9.42774 12.915 8.73853 12.1358C8.21697 11.5462 8.38427 10.9811 8.53001 10.7692C8.63773 10.6009 8.63825 10.452 9.77434 9.86287C10.999 9.22786 11.6845 8.79629 12.5436 8.36676C13.36 7.95854 14.5774 7.12552 17.3992 7.00628C19.6567 6.9109 21.8402 7.92584 22.6351 8.40277C23.377 8.77371 24.8442 9.61396 26.6013 11.3809L32.0003 9.57469Z" fill="#A30505"/>
<path d="M-0.000342371 21.6646L1.9203 13.9822L5.81881 12.5436C6.20301 12.3714 7.49378 12.1859 8.6384 12.6946C9.78303 13.2034 14.0568 15.8392 16.1765 17.111C16.5649 17.3844 17.2986 18.1684 16.5058 19.0622C15.8857 19.7612 14.8771 19.3536 14.5327 19.0622L12.9901 18.1756C12.5657 17.9814 11.7282 17.7359 11.2926 18.4489C10.8964 19.0973 11.2472 19.9102 11.4724 20.1752C11.9051 20.6658 14.007 21.6262 15.7284 21.5084C16.3573 21.5099 17.6582 21.2757 19.9221 19.8279L21.5516 18.927C21.7503 18.7946 22.5723 18.3243 23.2615 19.1035C23.783 19.6931 23.6157 20.2581 23.47 20.4701C23.3623 20.6384 23.3618 20.7873 22.2257 21.3764C21.001 22.0114 20.3155 22.443 19.4564 22.8725C18.64 23.2807 17.4226 24.1137 14.6008 24.233C12.3433 24.3284 10.1598 23.3134 9.36488 22.8365C8.62299 22.4655 7.15582 21.6253 5.39869 19.8583L-0.000342371 21.6646Z" fill="#4D4D4D"/>
</svg>
