<svg width="401" height="216" viewBox="0 0 401 216" fill="none" xmlns="http://www.w3.org/2000/svg">
<path d="M400.517 32.2253L376.478 128.38L327.684 146.385C322.875 148.541 306.72 150.862 292.393 144.494C278.067 138.127 224.576 105.136 198.045 89.218C193.184 85.797 184.001 75.9841 193.924 64.7974C201.685 56.048 214.308 61.1495 218.619 64.7974L237.927 75.894C243.239 78.3248 253.721 81.3973 259.174 72.473C264.132 64.3581 259.742 54.1829 256.923 50.8666C251.507 44.7255 225.199 32.7056 203.654 34.1798C195.783 34.161 179.5 37.0925 151.165 55.2131L130.77 66.4885C128.283 68.1467 117.995 74.033 109.369 64.2806C102.841 56.9004 104.935 49.8286 106.759 47.1755C108.107 45.0692 108.114 43.2052 122.333 35.8322C137.661 27.8842 146.241 22.4827 156.993 17.1066C167.212 11.9972 182.449 1.57097 217.768 0.0786401C246.022 -1.11522 273.352 11.5879 283.301 17.5573C292.586 22.2 310.95 32.7167 332.942 54.8322L400.517 32.2253Z" fill="#A30505"/>
<path d="M9.15527e-05 183.543L24.0392 87.3889L72.8336 69.3836C77.6423 67.228 93.7978 64.9069 108.124 71.2742C122.45 77.6414 175.942 110.632 202.472 126.551C207.334 129.972 216.516 139.784 206.594 150.971C198.833 159.721 186.209 154.619 181.898 150.971L162.59 139.875C157.279 137.444 146.796 134.371 141.344 143.296C136.386 151.41 140.776 161.586 143.595 164.902C149.011 171.043 175.318 183.063 196.863 181.589C204.735 181.608 221.018 178.676 249.352 160.555L269.747 149.28C272.235 147.622 282.523 141.736 291.149 151.488C297.677 158.868 295.583 165.94 293.759 168.593C292.41 170.699 292.404 172.563 278.185 179.936C262.856 187.884 254.276 193.286 243.524 198.662C233.306 203.771 218.068 214.198 182.75 215.69C154.495 216.884 127.166 204.181 117.217 198.211C107.931 193.569 89.5679 183.052 67.5752 160.936L9.15527e-05 183.543Z" fill="#4D4D4D"/>
</svg>
