<svg width="121" height="25" viewBox="0 0 121 25" fill="none" xmlns="http://www.w3.org/2000/svg">
<path d="M12.5 0L15.3064 8.63729H24.3882L17.0409 13.9754L19.8473 22.6127L12.5 17.2746L5.15268 22.6127L7.95911 13.9754L0.611794 8.63729H9.69357L12.5 0Z" fill="white"/>
<path d="M36.5 0L39.3064 8.63729H48.3882L41.0409 13.9754L43.8473 22.6127L36.5 17.2746L29.1527 22.6127L31.9591 13.9754L24.6118 8.63729H33.6936L36.5 0Z" fill="white"/>
<path d="M60.5 0L63.3064 8.63729H72.3882L65.0409 13.9754L67.8473 22.6127L60.5 17.2746L53.1527 22.6127L55.9591 13.9754L48.6118 8.63729H57.6936L60.5 0Z" fill="white"/>
<path d="M84.5 0L87.3064 8.63729H96.3882L89.0409 13.9754L91.8473 22.6127L84.5 17.2746L77.1527 22.6127L79.9591 13.9754L72.6118 8.63729H81.6936L84.5 0Z" fill="white"/>
<path d="M108.5 0L111.306 8.63729H120.388L113.041 13.9754L115.847 22.6127L108.5 17.2746L101.153 22.6127L103.959 13.9754L96.6118 8.63729H105.694L108.5 0Z" fill="white"/>
</svg>
